<svg width="8" height="16" viewBox="0 0 8 16" fill="none" xmlns="http://www.w3.org/2000/svg">
<path d="M1.44249 15.1175C1.34326 15.1171 1.2451 15.097 1.15369 15.0584C1.06228 15.0198 0.97945 14.9634 0.909989 14.8925C0.770301 14.752 0.691895 14.5619 0.691895 14.3638C0.691895 14.1656 0.770301 13.9756 0.909989 13.835L5.15499 9.59003C5.57634 9.16815 5.81301 8.59628 5.81301 8.00003C5.81301 7.40378 5.57634 6.8319 5.15499 6.41003L0.909989 2.16503C0.787119 2.02155 0.722914 1.837 0.730205 1.64824C0.737496 1.45948 0.815746 1.28043 0.949317 1.14686C1.08289 1.01328 1.26194 0.935035 1.4507 0.927744C1.63946 0.920454 1.82401 0.984658 1.96749 1.10753L6.24999 5.34503C6.59921 5.69337 6.87628 6.10719 7.06533 6.56278C7.25438 7.01836 7.35169 7.50677 7.35169 8.00003C7.35169 8.49328 7.25438 8.98169 7.06533 9.43728C6.87628 9.89287 6.59921 10.3067 6.24999 10.655L2.00499 14.8925C1.93203 14.9671 1.84432 15.0256 1.74747 15.0644C1.65061 15.1031 1.54674 15.1212 1.44249 15.1175Z" fill="#EB0016"/>
</svg>
