<svg width="24" height="24" viewBox="0 0 24 24" fill="none" xmlns="http://www.w3.org/2000/svg">
<path d="M3.67143 2.83228C3.67078 2.83228 3.67006 2.83228 3.66941 2.83228C3.44242 2.83228 3.22892 2.92076 3.06771 3.08157C2.90472 3.24416 2.81494 3.46064 2.81494 3.69111V16.5691C2.81494 17.0414 3.20064 17.4265 3.67482 17.4277C5.67386 17.4325 9.02304 17.8491 11.3335 20.267V6.78978C11.3335 6.6297 11.2926 6.47932 11.2155 6.35487C9.31913 3.30096 5.67499 2.83696 3.67143 2.83228Z" fill="#2C2D45"/>
<path d="M21.1855 16.5692V3.69111C21.1855 3.46064 21.0957 3.24416 20.9327 3.08157C20.7715 2.92076 20.5578 2.83228 20.3311 2.83228C20.3304 2.83228 20.3296 2.83228 20.329 2.83228C18.3255 2.83704 14.6814 3.30104 12.785 6.35495C12.7078 6.4794 12.667 6.62978 12.667 6.78986V20.267C14.9775 17.8491 18.3266 17.4325 20.3257 17.4277C20.7998 17.4265 21.1855 17.0414 21.1855 16.5692Z" fill="#2C2D45"/>
<path d="M23.1416 5.80225H22.5189V16.5692C22.5189 17.775 21.5365 18.7582 20.3289 18.7612C18.6333 18.7652 15.8375 19.0968 13.8574 20.9708C17.2819 20.1323 20.892 20.6774 22.9493 21.1462C23.2062 21.2047 23.4717 21.1443 23.6775 20.9802C23.8826 20.8166 24.0002 20.572 24.0002 20.3094V6.66092C24.0003 6.18746 23.615 5.80225 23.1416 5.80225Z" fill="#2C2D45"/>
<path d="M1.48138 16.5692V5.80225H0.85867C0.385294 5.80225 0 6.18746 0 6.66092V20.3092C0 20.5718 0.117657 20.8164 0.322749 20.98C0.528406 21.144 0.793619 21.2046 1.05091 21.146C3.10829 20.677 6.71841 20.1321 10.1427 20.9705C8.16278 19.0966 5.36697 18.7651 3.67137 18.7611C2.46385 18.7582 1.48138 17.775 1.48138 16.5692Z" fill="#2C2D45"/>
</svg>
