<svg width="24" height="24" viewBox="0 0 24 24" fill="none" xmlns="http://www.w3.org/2000/svg">
<g clip-path="url(#clip0_2_1131)">
<path d="M23.2002 11.2149C22.6847 10.6082 21.9727 10.2015 21.1882 10.0659C21.6396 8.2608 21.9116 6.41551 22.0002 4.55692L22.0622 2.92491L20.4302 2.99992C19.0906 3.06872 17.7582 3.23854 16.4442 3.50792C16.5497 2.88724 16.4561 2.2491 16.1769 1.68485C15.8976 1.12059 15.447 0.659158 14.8895 0.366603C14.3321 0.0740487 13.6963 -0.0346245 13.0733 0.0561415C12.4503 0.146908 11.872 0.432459 11.4212 0.871915C11.2552 1.03791 11.0002 1.24391 11.0002 1.24391C11.0002 1.24391 10.7462 1.03791 10.5792 0.871915C10.0833 0.372426 9.42593 0.065453 8.72458 0.0057996C8.02323 -0.0538538 7.32351 0.137695 6.75033 0.54625C6.17715 0.954805 5.76783 1.55377 5.59544 2.23622C5.42305 2.91866 5.49881 3.64016 5.8092 4.27191C4.57609 4.674 3.5243 5.49812 2.83893 6.59926C2.15355 7.70039 1.87851 9.00798 2.0622 10.2919C1.36261 10.5885 0.783365 11.1122 0.417954 11.7784C0.0525425 12.4446 -0.0777165 13.2146 0.0482 13.9639C0.408157 16.0942 1.2773 18.106 2.58169 19.8282C3.88609 21.5505 5.58715 22.9322 7.5402 23.8559L7.8402 23.9999H16.1502L16.4502 23.8559C18.4032 22.9322 20.1043 21.5505 21.4087 19.8282C22.7131 18.106 23.5822 16.0942 23.9422 13.9639C24.0264 13.4793 24.0037 12.9822 23.8755 12.5073C23.7473 12.0324 23.5168 11.5913 23.2002 11.2149ZM18.0572 9.99992H13.0452C12.9885 9.59791 13.0226 9.18832 13.1449 8.80121C13.2673 8.4141 13.4748 8.05931 13.7522 7.76292C14.5262 6.96292 16.8272 6.41392 18.8602 6.15292C18.7243 7.45925 18.4552 8.74828 18.0572 9.99992ZM7.5002 6.99992C7.87045 6.99995 8.23603 7.08255 8.57033 7.2417C8.90463 7.40085 9.19922 7.63256 9.43267 7.91993C9.66612 8.20731 9.83254 8.54314 9.91982 8.90295C10.0071 9.26277 10.013 9.63752 9.9372 9.99992H5.0632C4.98737 9.63752 4.9933 9.26277 5.08058 8.90295C5.16786 8.54314 5.33428 8.20731 5.56773 7.91993C5.80118 7.63256 6.09577 7.40085 6.43007 7.2417C6.76437 7.08255 7.12995 6.99995 7.5002 6.99992ZM15.4712 20.9999H8.5292C7.08532 20.2603 5.83406 19.1938 4.87504 17.8853C3.91603 16.5768 3.27576 15.0625 3.0052 13.4629C2.99602 13.4076 2.99923 13.3509 3.01463 13.2969C3.03002 13.243 3.0572 13.1931 3.0942 13.1509C3.13382 13.1035 3.18338 13.0654 3.23938 13.0393C3.29537 13.0132 3.35642 12.9998 3.4182 12.9999H20.5822C20.644 12.9998 20.705 13.0132 20.761 13.0393C20.817 13.0654 20.8666 13.1035 20.9062 13.1509C20.9434 13.193 20.9707 13.2428 20.9861 13.2968C21.0015 13.3508 21.0046 13.4076 20.9952 13.4629C20.7246 15.0625 20.0844 16.5768 19.1254 17.8853C18.1663 19.1938 16.9151 20.2603 15.4712 20.9999Z" fill="#2C2D45"/>
</g>
<defs>
<clipPath id="clip0_2_1131">
<rect width="24" height="24" fill="white"/>
</clipPath>
</defs>
</svg>
