<svg width="24" height="25" viewBox="0 0 24 25" fill="none" xmlns="http://www.w3.org/2000/svg">
<g clip-path="url(#clip0_2_4883)">
<path d="M19 12.5C18.447 12.5 18 12.948 18 13.5V21.5C18 22.051 17.552 22.5 17 22.5H3C2.448 22.5 2 22.051 2 21.5V7.5C2 6.949 2.448 6.5 3 6.5H11C11.553 6.5 12 6.052 12 5.5C12 4.948 11.553 4.5 11 4.5H3C1.346 4.5 0 5.846 0 7.5V21.5C0 23.154 1.346 24.5 3 24.5H17C18.654 24.5 20 23.154 20 21.5V13.5C20 12.947 19.553 12.5 19 12.5Z" fill="#2C2D45"/>
<path d="M9.37621 11.589C9.30621 11.659 9.25921 11.748 9.23921 11.844L8.53221 15.38C8.49921 15.544 8.55121 15.713 8.66921 15.832C8.76421 15.927 8.89221 15.978 9.02321 15.978C9.05521 15.978 9.08821 15.975 9.12121 15.968L12.6562 15.261C12.7542 15.241 12.8432 15.194 12.9122 15.124L20.8242 7.212L17.2892 3.677L9.37621 11.589Z" fill="#2C2D45"/>
<path d="M23.2681 1.23198C22.2931 0.256982 20.7071 0.256982 19.7331 1.23198L18.3491 2.61598L21.8841 6.15098L23.2681 4.76698C23.7401 4.29598 24.0001 3.66798 24.0001 2.99998C24.0001 2.33198 23.7401 1.70398 23.2681 1.23198Z" fill="#2C2D45"/>
</g>
<defs>
<clipPath id="clip0_2_4883">
<rect width="24" height="24" fill="white" transform="translate(0 0.5)"/>
</clipPath>
</defs>
</svg>
