<svg width="24" height="24" viewBox="0 0 24 24" fill="none" xmlns="http://www.w3.org/2000/svg">
<g clip-path="url(#clip0_2_1121)">
<path d="M23.3757 20.4059L13.9648 10.995L2.96984 0H2.11057L1.93512 0.445828C1.47204 1.62258 1.27418 2.82614 1.36301 3.92625C1.46426 5.18025 1.94065 6.26592 2.74076 7.06603L11.324 15.6493L12.4562 14.5172L20.3914 23.3903C21.1808 24.1797 22.5394 24.2265 23.3757 23.3903C24.1985 22.5675 24.1985 21.2287 23.3757 20.4059Z" fill="#2C2D45"/>
<path d="M7.34678 13.6614L0.624387 20.3838C-0.198363 21.2065 -0.198363 22.5453 0.624387 23.3681C1.40598 24.1497 2.75809 24.2187 3.60868 23.3681L10.3311 16.6456L7.34678 13.6614Z" fill="#2C2D45"/>
<path d="M22.9806 3.99597L19.1673 7.80925L18.1725 6.81447L21.9858 3.00114L20.991 2.00636L17.1777 5.81964L16.1829 4.82486L19.9963 1.01158L19.0015 0.0168457L14.0276 4.99075C13.4191 5.59924 13.0558 6.40717 13.0044 7.26583C12.9915 7.48338 12.9421 7.69736 12.8604 7.90089L16.0914 11.1319C16.2949 11.05 16.509 11.0008 16.7265 10.9878C17.5851 10.9366 18.3931 10.5731 19.0015 9.96466L23.9754 4.9908L22.9806 3.99597Z" fill="#2C2D45"/>
</g>
<defs>
<clipPath id="clip0_2_1121">
<rect width="24" height="24" fill="white"/>
</clipPath>
</defs>
</svg>
