<svg width="22" height="22" viewBox="0 0 22 22" fill="none" xmlns="http://www.w3.org/2000/svg">
<path fill-rule="evenodd" clip-rule="evenodd" d="M15.3939 1.021L15.4599 1.039C16.5599 1.334 17.4309 1.567 18.1159 1.815C18.8169 2.068 19.3889 2.357 19.8599 2.798C20.5454 3.44053 21.0249 4.27191 21.2379 5.187C21.3849 5.815 21.3499 6.455 21.2179 7.188C21.0909 7.906 20.8579 8.777 20.5629 9.876L20.0269 11.875C19.7329 12.974 19.4989 13.845 19.2519 14.531C18.9979 15.231 18.7089 15.803 18.2679 16.274C17.6463 16.9377 16.8474 17.409 15.9659 17.632C15.7076 18.2241 15.3313 18.7573 14.8599 19.199C14.3889 19.64 13.8169 19.929 13.1159 20.183C12.4309 20.431 11.5599 20.664 10.4609 20.959L10.3939 20.977C9.29389 21.271 8.42389 21.504 7.70589 21.633C6.97289 21.764 6.33289 21.799 5.70389 21.653C4.78892 21.4393 3.95788 20.9591 3.31589 20.273C2.87589 19.803 2.58589 19.231 2.33189 18.53C2.08489 17.845 1.85189 16.974 1.55689 15.874L1.02089 13.876C0.726888 12.776 0.492889 11.906 0.364889 11.188C0.233889 10.455 0.198889 9.815 0.344889 9.186C0.558581 8.27104 1.03883 7.44 1.72489 6.798C2.19489 6.358 2.76689 6.068 3.46789 5.814C4.15289 5.567 5.02389 5.334 6.12289 5.039L6.15689 5.029L6.90789 4.829C7.29989 3.43 7.64389 2.441 8.31589 1.724C8.95801 1.03831 9.78904 0.558418 10.7039 0.345003C11.3329 0.199003 11.9719 0.234003 12.7059 0.365003C13.4229 0.493003 14.2939 0.727003 15.3939 1.021ZM6.45489 6.503C5.36189 6.796 4.57889 7.008 3.97689 7.225C3.36689 7.445 3.00989 7.649 2.74989 7.893C2.28054 8.33232 1.95202 8.90096 1.80589 9.527C1.72589 9.875 1.72689 10.287 1.84189 10.924C1.95689 11.571 2.17389 12.381 2.47889 13.521L2.99689 15.453C3.30189 16.593 3.51989 17.403 3.74289 18.02C3.96289 18.63 4.16689 18.988 4.41089 19.248C4.8502 19.7174 5.41884 20.0459 6.04489 20.192C6.39189 20.272 6.80489 20.27 7.44189 20.156C8.08889 20.041 8.89889 19.824 10.0389 19.519C11.1789 19.213 11.9889 18.996 12.6069 18.772C13.2159 18.552 13.5739 18.348 13.8339 18.105C13.9719 17.975 14.0969 17.835 14.2099 17.686C14.0244 17.6595 13.8396 17.6278 13.6559 17.591C12.9839 17.457 12.1759 17.241 11.1809 16.974L11.1229 16.959C10.0239 16.664 9.15289 16.431 8.46789 16.183C7.76689 15.93 7.19489 15.641 6.72389 15.2C6.03803 14.5576 5.55812 13.7262 5.34489 12.811C5.19889 12.183 5.23389 11.543 5.36489 10.81C5.49289 10.092 5.72689 9.221 6.02089 8.122L6.45489 6.503ZM12.4419 1.842C11.8039 1.727 11.3919 1.725 11.0449 1.806C10.4188 1.95214 9.8502 2.28065 9.41089 2.75C8.97489 3.215 8.70589 3.935 8.23989 5.643C8.16389 5.921 8.08389 6.22 7.99689 6.545L7.47889 8.477C7.17389 9.617 6.95689 10.427 6.84189 11.074C6.72689 11.711 6.72489 12.124 6.80589 12.471C6.95202 13.097 7.28054 13.6657 7.74989 14.105C8.00989 14.349 8.36789 14.552 8.97689 14.773C9.59489 14.996 10.4049 15.213 11.5449 15.519C12.5699 15.794 13.3299 15.997 13.9479 16.119C14.5629 16.242 14.9809 16.272 15.3229 16.23C15.3979 16.22 15.4689 16.208 15.5389 16.192C16.1649 16.0459 16.7336 15.7174 17.1729 15.248C17.4169 14.988 17.6209 14.63 17.8409 14.021C18.0639 13.403 18.2809 12.593 18.5869 11.453L19.1049 9.521C19.4099 8.381 19.6269 7.571 19.7419 6.924C19.8559 6.287 19.8589 5.874 19.7779 5.527C19.6318 4.90096 19.3032 4.33232 18.8339 3.893C18.5739 3.649 18.2159 3.446 17.6069 3.225C16.9879 3.002 16.1789 2.785 15.0389 2.479C13.8989 2.174 13.0889 1.957 12.4419 1.842ZM10.0519 8.806C10.0774 8.71085 10.1214 8.62166 10.1814 8.54352C10.2414 8.46538 10.3162 8.39984 10.4016 8.35062C10.4869 8.3014 10.5811 8.26948 10.6788 8.25668C10.7765 8.24387 10.8757 8.25044 10.9709 8.276L15.8009 9.57C15.9877 9.62617 16.1453 9.75291 16.2402 9.92333C16.3351 10.0937 16.3599 10.2944 16.3092 10.4828C16.2586 10.6712 16.1366 10.8325 15.9691 10.9324C15.8016 11.0323 15.6017 11.063 15.4119 11.018L10.5819 9.724C10.3899 9.67244 10.2263 9.5468 10.1269 9.37468C10.0276 9.20255 10.0006 8.99802 10.0519 8.806ZM9.27489 11.704C9.3004 11.6087 9.34446 11.5194 9.40453 11.4412C9.4646 11.363 9.53951 11.2974 9.62496 11.2482C9.71042 11.199 9.80474 11.1671 9.90254 11.1543C10.0003 11.1416 10.0997 11.1483 10.1949 11.174L13.0919 11.95C13.284 12.0015 13.4479 12.1271 13.5474 12.2994C13.6469 12.4716 13.6738 12.6764 13.6224 12.8685C13.5709 13.0607 13.4453 13.2245 13.273 13.324C13.1008 13.4235 12.896 13.4505 12.7039 13.399L9.80589 12.622C9.61394 12.5704 9.4503 12.4448 9.35093 12.2727C9.25155 12.1005 9.22456 11.896 9.27589 11.704" fill="#8B97AE"/>
</svg>
