<svg width="24" height="24" viewBox="0 0 24 24" fill="none" xmlns="http://www.w3.org/2000/svg">
<g clip-path="url(#clip0_2_1070)">
<path d="M23.707 22.293L21.167 19.753C21.691 18.962 22 18.017 22 17C22 14.243 19.757 12 17 12C14.243 12 12 14.243 12 17C12 19.757 14.243 22 17 22C18.017 22 18.962 21.691 19.753 21.167L22.293 23.707C22.684 24.098 23.316 24.098 23.707 23.707C24.098 23.316 24.098 22.684 23.707 22.293ZM17 20C15.346 20 14 18.654 14 17C14 15.346 15.346 14 17 14C18.654 14 20 15.346 20 17C20 18.654 18.654 20 17 20Z" fill="#2C2D45"/>
<path d="M17 10V5C17 4.45 16.55 4 16 4H15V1C15 0.45 14.55 0 14 0H3C2.18 0 1.42 0.34 0.88 0.88C0.34 1.42 0 2.17 0 3V19C0 20.65 1.35 22 3 22H12.11C10.81 20.73 10 18.96 10 17C10 13.14 13.14 10 17 10ZM3 4C2.45 4 2 3.55 2 3C2 2.45 2.45 2 3 2H13V4H3Z" fill="#2C2D45"/>
</g>
<defs>
<clipPath id="clip0_2_1070">
<rect width="24" height="24" fill="white"/>
</clipPath>
</defs>
</svg>
