<svg width="25" height="24" viewBox="0 0 25 24" fill="none" xmlns="http://www.w3.org/2000/svg">
<path d="M9.50006 16.2L6.00006 12.7C5.90853 12.6074 5.79953 12.5338 5.67937 12.4836C5.55921 12.4334 5.43028 12.4076 5.30006 12.4076C5.16983 12.4076 5.0409 12.4334 4.92074 12.4836C4.80058 12.5338 4.69158 12.6074 4.60006 12.7C4.50742 12.7915 4.43387 12.9005 4.38367 13.0207C4.33347 13.1409 4.30762 13.2698 4.30762 13.4C4.30762 13.5302 4.33347 13.6592 4.38367 13.7793C4.43387 13.8995 4.50742 14.0085 4.60006 14.1L8.79006 18.29C9.18006 18.68 9.81006 18.68 10.2001 18.29L20.8001 7.70001C20.8927 7.60848 20.9662 7.49948 21.0164 7.37932C21.0666 7.25916 21.0925 7.13023 21.0925 7.00001C21.0925 6.86978 21.0666 6.74085 21.0164 6.62069C20.9662 6.50053 20.8927 6.39153 20.8001 6.30001C20.7085 6.20737 20.5995 6.13382 20.4794 6.08362C20.3592 6.03342 20.2303 6.00757 20.1001 6.00757C19.9698 6.00757 19.8409 6.03342 19.7207 6.08362C19.6006 6.13382 19.4916 6.20737 19.4001 6.30001L9.50006 16.2Z" fill="#EBF1F4"/>
</svg>
